<?xml version="1.0" standalone="no"?><!DOCTYPE svg PUBLIC "-//W3C//DTD SVG 1.1//EN" "http://www.w3.org/Graphics/SVG/1.1/DTD/svg11.dtd"><svg t="1542522025126" class="icon" style="" viewBox="0 0 1024 1024" version="1.1" xmlns="http://www.w3.org/2000/svg" p-id="5099" xmlns:xlink="http://www.w3.org/1999/xlink" width="200" height="200"><defs><style type="text/css"></style></defs><path d="M515.604 997.581c-269.053 0-487.942-218.891-487.942-487.942s218.891-487.956 487.942-487.956 487.942 218.891 487.942 487.942-218.891 487.956-487.942 487.956zM515.604 62.641c-246.47 0-446.982 200.527-446.982 446.982s200.527 446.982 446.982 446.982 446.982-200.527 446.982-446.982-200.513-446.982-446.982-446.982z" p-id="5100"></path><path d="M671.157 777.844c-172.769 0-429.534-274.050-429.534-417.997 0-57.549 77.019-118.429 118.429-118.429 43.787 0 118.415 126.279 118.415 152.986 0 18.814-8.124 32.126-14.637 42.831-5.066 8.301-8.055 13.489-8.383 19.47 6.718 21.012 85.333 99.396 107.534 107.287 5.899-0.518 13.366-4.41 21.259-8.519 12.37-6.445 27.771-14.473 46.586-14.473 30.078 0 158.748 83.927 158.748 118.429 0 65.604-64.771 118.415-118.415 118.415zM358.918 282.433c-19.129 1.679-76.336 43.663-76.336 77.414 0 123.262 240.026 377.037 388.574 377.037 32.809 0 74.861-35.348 77.346-73.878-14.527-20.508-98.796-78.698-118.21-81.073-8.26 0.028-17.012 4.588-27.13 9.858-11.892 6.198-25.355 13.216-41.478 13.216-35.772 0-147.237-111.452-147.237-147.223 0-18.268 7.973-31.348 14.39-41.861 5.284-8.684 8.383-14.063 8.629-20.617-4.602-20.876-58.272-104.448-78.547-112.873z" p-id="5101"></path></svg>